<svg width="400" height="93" viewBox="0 0 400 93" fill="none" xmlns="http://www.w3.org/2000/svg">
<path d="M107.64 73.2686H99.08V19.6686H107.64V73.2686ZM128.68 27.4286H77.96V19.6686H128.68V27.4286ZM142.374 73.2686H133.734V19.6686H161.574C165.628 19.6686 169.121 20.2819 172.054 21.5086C175.041 22.7352 177.308 24.5219 178.854 26.8686C180.454 29.2152 181.254 32.0686 181.254 35.4286C181.254 38.4152 180.614 40.9752 179.334 43.1086C178.108 45.2419 176.294 46.9219 173.894 48.1486C171.548 49.3752 168.694 50.0952 165.334 50.3086V50.8686C167.414 51.4019 169.014 52.2819 170.134 53.5086C171.308 54.6819 172.374 56.1219 173.334 57.8286L182.294 73.2686H172.374L163.814 58.4686C163.014 57.0286 162.134 55.8819 161.174 55.0286C160.268 54.1219 159.121 53.4819 157.734 53.1086C156.348 52.6819 154.508 52.4686 152.214 52.4686H142.374V73.2686ZM142.374 27.4286V45.8286H161.494C165.068 45.8286 167.761 45.1352 169.574 43.7486C171.388 42.3619 172.294 39.9886 172.294 36.6286C172.294 33.3752 171.388 31.0286 169.574 29.5886C167.761 28.1486 165.068 27.4286 161.494 27.4286H142.374ZM193.084 73.2686H183.484L207.404 19.6686H219.564L243.484 73.2686H233.724L216.844 35.2686L213.724 27.6686H213.084L209.964 35.2686L193.084 73.2686ZM231.084 59.3486H195.324V51.5886H231.084V59.3486ZM278.204 73.2686H265.964L243.084 19.6686H253.324L271.884 64.5486H272.524L290.924 19.6686H301.084L278.204 73.2686ZM313.39 73.2686H304.75V19.6686H313.39V73.2686ZM347.63 73.2686H307.39V65.5086H347.63V73.2686ZM346.43 50.1486H307.39V42.4686H346.43V50.1486ZM347.63 27.4286H307.39V19.6686H347.63V27.4286ZM362.999 73.2686H354.359V19.6686H362.999V73.2686ZM396.039 73.2686H356.919V65.5086H396.039V73.2686Z" fill="white"/>
<path d="M30.64 72.16C24.7733 72.16 19.7067 71.04 15.44 68.8C11.1733 66.56 7.86667 63.4133 5.52 59.36C3.17333 55.3067 2 50.5867 2 45.2C2 39.8133 3.17333 35.0933 5.52 31.04C7.86667 26.9867 11.1733 23.84 15.44 21.6C19.7067 19.36 24.7733 18.24 30.64 18.24C36.5067 18.24 41.5733 19.36 45.84 21.6C50.1067 23.84 53.4133 26.9867 55.76 31.04C58.1067 35.0933 59.28 39.8133 59.28 45.2C59.28 50.5867 58.1067 55.3067 55.76 59.36C53.4133 63.4133 50.1067 66.56 45.84 68.8C41.5733 71.04 36.5067 72.16 30.64 72.16ZM30.64 65.92C35.7067 65.92 39.8133 65.1733 42.96 63.68C46.16 62.1867 48.5067 59.92 50 56.88C51.5467 53.84 52.32 49.9467 52.32 45.2C52.32 40.4533 51.5467 36.56 50 33.52C48.5067 30.48 46.16 28.2133 42.96 26.72C39.8133 25.2267 35.7067 24.48 30.64 24.48C25.6267 24.48 21.52 25.2267 18.32 26.72C15.12 28.2133 12.7467 30.48 11.2 33.52C9.65333 36.56 8.88 40.4533 8.88 45.2C8.88 49.9467 9.65333 53.84 11.2 56.88C12.7467 59.92 15.12 62.1867 18.32 63.68C21.52 65.1733 25.6267 65.92 30.64 65.92ZM30.88 59.68C27.68 59.68 24.9067 59.0667 22.56 57.84C20.2133 56.6133 18.4 54.9333 17.12 52.8C15.84 50.6133 15.2 48.08 15.2 45.2C15.2 42.2667 15.84 39.7333 17.12 37.6C18.4 35.4133 20.2133 33.7333 22.56 32.56C24.9067 31.3333 27.68 30.72 30.88 30.72C33.76 30.72 36.2933 31.2267 38.48 32.24C40.72 33.2 42.48 34.56 43.76 36.32C45.04 38.08 45.68 40.08 45.68 42.32V42.96H39.2V42.48C39.2 40.4 38.4533 38.9067 36.96 38C35.4667 37.0933 33.44 36.64 30.88 36.64C27.9467 36.64 25.68 37.28 24.08 38.56C22.48 39.84 21.68 42.0533 21.68 45.2C21.68 48.2933 22.48 50.5067 24.08 51.84C25.68 53.12 27.9467 53.76 30.88 53.76C33.44 53.76 35.4667 53.3067 36.96 52.4C38.4533 51.44 39.2 49.9467 39.2 47.92V47.44H45.68V48.08C45.68 50.32 45.04 52.32 43.76 54.08C42.48 55.84 40.72 57.2267 38.48 58.24C36.2933 59.2 33.76 59.68 30.88 59.68Z" fill="white"/>
</svg>
