<svg width="122" height="41" viewBox="0 0 122 41" fill="none" xmlns="http://www.w3.org/2000/svg">
<rect y="2.64502" width="122" height="35.7097" rx="7" fill="#00449D"/>
<path d="M39.6056 27.3228H37.4656V15.8628H32.1856V13.9228H44.8656V15.8628H39.6056V27.3228ZM48.2892 27.3228H46.1292V13.9228H53.0892C56.1292 13.9228 58.0092 15.3628 58.0092 17.8628C58.0092 20.0828 56.5492 21.4428 54.0292 21.5828V21.7228C55.0692 22.0028 55.5492 22.6028 56.0292 23.4428L58.2692 27.3228H55.7892L53.6492 23.6228C53.0492 22.5628 52.4292 22.1228 50.7492 22.1228H48.2892V27.3228ZM48.2892 15.8628V20.4628H53.0692C54.8692 20.4628 55.7692 19.8428 55.7692 18.1628C55.7692 16.5228 54.8692 15.8628 53.0692 15.8628H48.2892ZM60.9667 27.3228H58.5667L64.5467 13.9228H67.5867L73.5667 27.3228H71.1267L69.5867 23.8428H62.5067L60.9667 27.3228ZM65.1867 17.8228L63.3667 21.9028H68.7267L66.9067 17.8228L66.1267 15.9228H65.9667L65.1867 17.8228ZM82.2467 27.3228H79.1867L73.4667 13.9228H76.0267L80.6667 25.1428H80.8267L85.4267 13.9228H87.9667L82.2467 27.3228ZM99.6031 27.3228H88.8831V13.9228H99.6031V15.8628H91.0431V19.6228H99.3031V21.5428H91.0431V25.3828H99.6031V27.3228ZM111.705 27.3228H101.285V13.9228H103.445V25.3828H111.705V27.3228Z" fill="white"/>
<path d="M19.4635 28.046C14.4265 28.046 11.2295 24.941 11.2295 20.295C11.2295 15.649 14.4265 12.544 19.4635 12.544C24.5005 12.544 27.6975 15.649 27.6975 20.295C27.6975 24.941 24.5005 28.046 19.4635 28.046ZM19.4635 26.252C23.8105 26.252 25.6965 24.343 25.6965 20.295C25.6965 16.247 23.8105 14.338 19.4635 14.338C15.1165 14.338 13.2075 16.247 13.2075 20.295C13.2075 24.343 15.1165 26.252 19.4635 26.252ZM19.5325 24.458C16.7955 24.458 15.0245 22.779 15.0245 20.295C15.0245 17.788 16.7955 16.132 19.5325 16.132C22.0165 16.132 23.7875 17.535 23.7875 19.467V19.651H21.9245V19.513C21.9245 18.317 21.0045 17.834 19.5325 17.834C17.8305 17.834 16.8875 18.501 16.8875 20.295C16.8875 22.089 17.8305 22.756 19.5325 22.756C21.0045 22.756 21.9245 22.25 21.9245 21.077V20.939H23.7875V21.123C23.7875 23.055 22.0165 24.458 19.5325 24.458Z" fill="white"/>
</svg>
