<svg width="21" height="19" viewBox="0 0 21 19" fill="none" xmlns="http://www.w3.org/2000/svg">
<path d="M0 9.63419C0 9.12793 0.352692 8.70954 0.810287 8.64332L0.9375 8.63419L17.4175 8.63499L11.4638 2.31029C11.0969 1.9206 11.0956 1.28744 11.4609 0.896078C11.793 0.540291 12.3138 0.506821 12.6814 0.79645L12.7867 0.893032L20.3492 8.92503C20.3976 8.9764 20.4396 9.03199 20.4753 9.0907C20.4853 9.10837 20.4956 9.12645 20.5053 9.14489C20.5142 9.16069 20.5223 9.17711 20.5299 9.1937C20.5405 9.21785 20.5509 9.2428 20.5602 9.26825C20.5679 9.28788 20.5742 9.30696 20.5801 9.3262C20.587 9.35006 20.5937 9.37549 20.5994 9.4013C20.6037 9.41932 20.6071 9.43667 20.6101 9.45408C20.6143 9.47999 20.6178 9.5068 20.6203 9.53393C20.6225 9.55462 20.6238 9.57512 20.6246 9.59564C20.6248 9.60808 20.625 9.62111 20.625 9.63419L20.6245 9.67293C20.6238 9.69256 20.6226 9.71217 20.6208 9.73173L20.625 9.63419C20.625 9.6973 20.6195 9.75904 20.609 9.8189C20.6066 9.8332 20.6037 9.84787 20.6005 9.86249C20.5938 9.89259 20.5862 9.92158 20.5773 9.95C20.5729 9.96412 20.5679 9.97921 20.5625 9.99418C20.5515 10.0243 20.5396 10.053 20.5265 10.0809C20.5204 10.094 20.5136 10.1078 20.5065 10.1214C20.4947 10.1436 20.4827 10.1647 20.4699 10.1853C20.4609 10.1999 20.4509 10.215 20.4405 10.2299L20.4324 10.2415C20.4072 10.2767 20.3797 10.31 20.3504 10.3413L20.3493 10.3422L12.7868 18.3756C12.4199 18.7653 11.8263 18.764 11.461 18.3726C11.1288 18.0169 11.0996 17.4613 11.3727 17.0704L11.4637 16.9584L17.415 10.635L0.9375 10.6342C0.419733 10.6342 0 10.1865 0 9.63419Z" fill="white"/>
</svg>
